<svg width="32" height="32" viewBox="0 0 32 32" fill="none" xmlns="http://www.w3.org/2000/svg">
<path d="M0 1.77778V10.6667H3.55556V3.55556H10.6667V0H1.77778C1.30628 0 0.854097 0.187301 0.520699 0.520699C0.187301 0.854097 0 1.30628 0 1.77778ZM32 10.6667V1.77778C32 1.30628 31.8127 0.854097 31.4793 0.520699C31.1459 0.187301 30.6937 0 30.2222 0H21.3333V3.55556H28.4444V10.6667H32ZM28.4444 28.4444H21.3333V32H30.2222C30.6937 32 31.1459 31.8127 31.4793 31.4793C31.8127 31.1459 32 30.6937 32 30.2222V21.3333H28.4444V28.4444ZM10.6667 32V28.4444H3.55556V21.3333H0V30.2222C0 30.6937 0.187301 31.1459 0.520699 31.4793C0.854097 31.8127 1.30628 32 1.77778 32H10.6667ZM0 14.2222H32V17.7778H0V14.2222Z" fill="black"/>
<rect x="17.7778" y="19.5555" width="5.33333" height="5.33333" rx="0.1" fill="#C4C4C4"/>
<rect x="14.2222" y="24.8889" width="3.55556" height="3.55556" rx="0.1" fill="#C4C4C4"/>
<rect x="10.6666" y="21.3333" width="3.55556" height="3.55556" rx="0.1" fill="#C4C4C4"/>
<path d="M5.33337 5.83334C5.33337 5.5572 5.55723 5.33334 5.83337 5.33334H26.1667C26.4429 5.33334 26.6667 5.5572 26.6667 5.83334V7.11112H5.33337V5.83334Z" fill="#757575"/>
<path d="M7.11108 7.11111H24.8889V14.2222H7.11108V7.11111Z" fill="#757575"/>
<path d="M26.6666 7.11112L24 8.65072V5.57152L26.6666 7.11112Z" fill="#757575"/>
<path d="M5.33337 7.11111L8.00004 5.57151V8.65071L5.33337 7.11111Z" fill="#757575"/>
</svg>
