<svg width="17" height="16" viewBox="0 0 17 16" fill="none" xmlns="http://www.w3.org/2000/svg">
<path d="M0.799988 0.888889V5.33333H2.57777V1.77778H6.13332V0H1.68888C1.45313 0 1.22704 0.0936505 1.06034 0.260349C0.893638 0.427048 0.799988 0.653141 0.799988 0.888889ZM16.8 5.33333V0.888889C16.8 0.653141 16.7063 0.427048 16.5396 0.260349C16.3729 0.0936505 16.1468 0 15.9111 0H11.4667V1.77778H15.0222V5.33333H16.8ZM15.0222 14.2222H11.4667V16H15.9111C16.1468 16 16.3729 15.9063 16.5396 15.7396C16.7063 15.573 16.8 15.3469 16.8 15.1111V10.6667H15.0222V14.2222ZM6.13332 16V14.2222H2.57777V10.6667H0.799988V15.1111C0.799988 15.3469 0.893638 15.573 1.06034 15.7396C1.22704 15.9063 1.45313 16 1.68888 16H6.13332ZM0.799988 7.11111H16.8V8.88889H0.800001L0.799988 7.11111Z" fill="black"/>
<rect x="9.68878" y="9.77777" width="2.66667" height="2.66667" rx="0.1" fill="#C4C4C4"/>
<rect x="7.91119" y="12.4445" width="1.77778" height="1.77778" rx="0.1" fill="#C4C4C4"/>
<rect x="6.1333" y="10.6667" width="1.77778" height="1.77778" rx="0.1" fill="#C4C4C4"/>
<path d="M3.46674 3.16663C3.46674 2.89048 3.69059 2.66663 3.96674 2.66663H13.6334C13.9095 2.66663 14.1334 2.89048 14.1334 3.16663V7.11107H3.46674V3.16663Z" fill="#757575"/>
</svg>
