<svg width="32" height="32" viewBox="0 0 32 32" fill="none" xmlns="http://www.w3.org/2000/svg">
<path d="M15.9999 7.41108V10.6666L15.9999 21.3333L15.9999 24.5889C15.9999 24.7545 15.8656 24.8889 15.6999 24.8889H7.11103H5.63325C5.46757 24.8889 5.33325 24.7545 5.33325 24.5889L5.33325 7.41108C5.33325 7.2454 5.46757 7.11108 5.63325 7.11108H7.11103L15.6999 7.11108C15.8656 7.11108 15.9999 7.2454 15.9999 7.41108Z" fill="#C4C4C4"/>
<path d="M1.77778 0L10.6667 0V2.66667L2.66667 2.66667L2.66667 10.6667H0L0 1.77778C0 1.30628 0.187301 0.854097 0.520699 0.520699C0.854097 0.187301 1.30628 0 1.77778 0ZM10.6667 32H1.77778C1.30628 32 0.854097 31.8127 0.520699 31.4793C0.187301 31.1459 0 30.6937 0 30.2222L0 21.3333H2.66667L2.66667 29.3333L10.6667 29.3333V32ZM29.3333 29.3333V21.3333L32 21.3333V30.2222C32 30.6937 31.8127 31.1459 31.4793 31.4793C31.1459 31.8127 30.6937 32 30.2222 32H21.3333L21.3333 29.3333H29.3333ZM32 10.6667H29.3333L29.3333 2.66667L21.3333 2.66667V0L30.2222 0C30.6937 0 31.1459 0.187301 31.4793 0.520699C31.8127 0.854097 32 1.30628 32 1.77778V10.6667ZM15.1111 0L15.1111 32H16.8889L16.8889 0L15.1111 0Z" fill="url(#paint0_radial_97_8)"/>
<rect width="3.55556" height="3.55556" rx="0.1" transform="matrix(0 1 1 0 19.5557 16)" fill="#575656"/>
<rect width="1.77778" height="1.77778" rx="0.1" transform="matrix(0 1 1 0 17.7778 14.2222)" fill="#575656"/>
<rect width="3.55556" height="3.55556" rx="0.1" transform="matrix(0 1 1 0 23.1111 12.4445)" fill="#575656"/>
<defs>
<radialGradient id="paint0_radial_97_8" cx="0" cy="0" r="1" gradientUnits="userSpaceOnUse" gradientTransform="translate(16 16) scale(16)">
<stop offset="0.791667" stop-color="#7C31F3"/>
<stop offset="1" stop-color="#652EEC"/>
</radialGradient>
</defs>
</svg>
