<svg width="16" height="16" viewBox="0 0 16 16" fill="none" xmlns="http://www.w3.org/2000/svg">
<path d="M7.99996 3.85554V5.33332L7.99996 10.6667L7.99996 12.1444C7.99996 12.3101 7.86564 12.4444 7.69996 12.4444H3.55551H2.96663C2.80094 12.4444 2.66663 12.3101 2.66663 12.1444L2.66663 3.85554C2.66663 3.68986 2.80094 3.55554 2.96663 3.55554H3.55551L7.69996 3.55554C7.86564 3.55554 7.99996 3.68986 7.99996 3.85554Z" fill="#C4C4C4"/>
<path d="M0.888889 0L5.33333 0V1.33333L1.33333 1.33333L1.33333 5.33333H0L0 0.888889C0 0.653141 0.0936505 0.427048 0.260349 0.260349C0.427048 0.0936505 0.653141 0 0.888889 0ZM5.33333 16H0.888889C0.653141 16 0.427048 15.9064 0.260349 15.7397C0.0936505 15.573 0 15.3469 0 15.1111L0 10.6667H1.33333L1.33333 14.6667L5.33333 14.6667V16ZM14.6667 14.6667V10.6667L16 10.6667V15.1111C16 15.3469 15.9064 15.573 15.7397 15.7397C15.573 15.9064 15.3469 16 15.1111 16H10.6667L10.6667 14.6667H14.6667ZM16 5.33333H14.6667L14.6667 1.33333L10.6667 1.33333V0L15.1111 0C15.3469 0 15.573 0.0936505 15.7397 0.260349C15.9064 0.427048 16 0.653141 16 0.888889V5.33333ZM7.55556 0L7.55556 16H8.44444L8.44444 0L7.55556 0Z" fill="url(#paint0_radial_97_2)"/>
<rect width="1.77778" height="1.77778" rx="0.1" transform="matrix(0 1 1 0 9.77783 8)" fill="#575656"/>
<rect width="0.888889" height="0.888889" rx="0.1" transform="matrix(0 1 1 0 8.88892 7.11111)" fill="#575656"/>
<rect width="1.77778" height="1.77778" rx="0.1" transform="matrix(0 1 1 0 11.5555 6.22223)" fill="#575656"/>
<defs>
<radialGradient id="paint0_radial_97_2" cx="0" cy="0" r="1" gradientUnits="userSpaceOnUse" gradientTransform="translate(8 8) scale(8)">
<stop offset="0.791667" stop-color="#7C31F3"/>
<stop offset="1" stop-color="#652EEC"/>
</radialGradient>
</defs>
</svg>
