<svg width="18" height="18" viewBox="0 0 18 18" fill="none" xmlns="http://www.w3.org/2000/svg">
<path d="M5 5L6 9H12L13 5L14 4V3H4V4L5 5Z" fill="#575656"/>
<path d="M0 1V6H1.5V1.5H6V0H1C0.734784 0 0.48043 0.105357 0.292893 0.292893C0.105357 0.48043 0 0.734784 0 1ZM18 6V1C18 0.734784 17.8946 0.48043 17.7071 0.292893C17.5196 0.105357 17.2652 0 17 0H12V1.5H16.5V6H18ZM16.5 16.5H12V18H17C17.2652 18 17.5196 17.8946 17.7071 17.7071C17.8946 17.5196 18 17.2652 18 17V12H16.5V16.5ZM6 18V16.5H1.5V12H0V17C0 17.2652 0.105357 17.5196 0.292893 17.7071C0.48043 17.8946 0.734784 18 1 18H6ZM0 8.5H18V9.5H0V8.5Z" fill="url(#paint0_radial_54_19)"/>
<rect x="9" y="12" width="2" height="2" rx="0.1" fill="#C4C4C4"/>
<rect x="8" y="14" width="1" height="1" rx="0.1" fill="#C4C4C4"/>
<rect x="7" y="13" width="1" height="1" rx="0.1" fill="#C4C4C4"/>
<rect x="8" y="11" width="1" height="1" rx="0.1" fill="#C4C4C4"/>
<rect x="7" y="10" width="1" height="1" rx="0.1" fill="#C4C4C4"/>
<rect x="10" y="10" width="1" height="1" rx="0.1" fill="#C4C4C4"/>
<defs>
<radialGradient id="paint0_radial_54_19" cx="0" cy="0" r="1" gradientUnits="userSpaceOnUse" gradientTransform="translate(9 9) rotate(90) scale(9)">
<stop offset="0.791667" stop-color="#7C31F3"/>
<stop offset="1" stop-color="#652EEC"/>
</radialGradient>
</defs>
</svg>
