<svg width="18" height="18" viewBox="0 0 18 18" fill="none" xmlns="http://www.w3.org/2000/svg">
<path d="M13 13L9 12L9 6L13 5L14 4H15L15 14H14L13 13Z" fill="#575656"/>
<path d="M17 18L12 18V16.5L16.5 16.5L16.5 12H18L18 17C18 17.2652 17.8946 17.5196 17.7071 17.7071C17.5196 17.8946 17.2652 18 17 18ZM12 0L17 0C17.2652 0 17.5196 0.105356 17.7071 0.292892C17.8946 0.480429 18 0.734784 18 1L18 6H16.5L16.5 1.5L12 1.5V0ZM1.5 1.5L1.5 6H0L0 1C0 0.734784 0.105356 0.480429 0.292892 0.292892C0.480429 0.105356 0.734784 0 1 0L6 0V1.5L1.5 1.5ZM0 12H1.5L1.5 16.5L6 16.5V18L1 18C0.734784 18 0.480429 17.8946 0.292892 17.7071C0.105356 17.5196 0 17.2652 0 17L0 12ZM9.5 18L9.5 0H8.5L8.5 18H9.5Z" fill="url(#paint0_radial_63_20)"/>
<rect width="2" height="2" rx="0.1" transform="matrix(0 -1 -1 0 6 9)" fill="#C4C4C4"/>
<rect width="1" height="1" rx="0.1" transform="matrix(0 -1 -1 0 4 10)" fill="#C4C4C4"/>
<rect width="1" height="1" rx="0.1" transform="matrix(0 -1 -1 0 5 11)" fill="#C4C4C4"/>
<rect width="1" height="1" rx="0.1" transform="matrix(0 -1 -1 0 7 10)" fill="#C4C4C4"/>
<rect width="1" height="1" rx="0.1" transform="matrix(0 -1 -1 0 8 11)" fill="#C4C4C4"/>
<rect width="1" height="1" rx="0.1" transform="matrix(0 -1 -1 0 8 8)" fill="#C4C4C4"/>
<defs>
<radialGradient id="paint0_radial_63_20" cx="0" cy="0" r="1" gradientUnits="userSpaceOnUse" gradientTransform="translate(9 9) rotate(-180) scale(9)">
<stop offset="0.791667" stop-color="#7C31F3"/>
<stop offset="1" stop-color="#652EEC"/>
</radialGradient>
</defs>
</svg>
