<svg width="18" height="18" viewBox="0 0 18 18" fill="none" xmlns="http://www.w3.org/2000/svg">
<path d="M5 5L9 6L9 12L5 13L4 14H3L3 4H4L5 5Z" fill="#C4C4C4"/>
<path d="M1 0L6 0V1.5L1.5 1.5L1.5 6H0L0 1C0 0.734784 0.105357 0.48043 0.292893 0.292893C0.48043 0.105357 0.734784 0 1 0ZM6 18H1C0.734784 18 0.48043 17.8946 0.292893 17.7071C0.105357 17.5196 0 17.2652 0 17L0 12H1.5L1.5 16.5H6V18ZM16.5 16.5V12H18V17C18 17.2652 17.8946 17.5196 17.7071 17.7071C17.5196 17.8946 17.2652 18 17 18H12V16.5H16.5ZM18 6H16.5V1.5L12 1.5V0L17 0C17.2652 0 17.5196 0.105357 17.7071 0.292893C17.8946 0.48043 18 0.734784 18 1V6ZM8.5 0L8.5 18H9.5L9.5 0L8.5 0Z" fill="url(#paint0_radial_63_29)"/>
<rect width="2" height="2" rx="0.1" transform="matrix(0 1 1 0 12 9)" fill="#575656"/>
<rect width="1" height="1" rx="0.1" transform="matrix(0 1 1 0 14 8)" fill="#575656"/>
<rect width="1" height="1" rx="0.1" transform="matrix(0 1 1 0 13 7)" fill="#575656"/>
<rect width="1" height="1" rx="0.1" transform="matrix(0 1 1 0 11 8)" fill="#575656"/>
<rect width="1" height="1" rx="0.1" transform="matrix(0 1 1 0 10 7)" fill="#575656"/>
<rect width="1" height="1" rx="0.1" transform="matrix(0 1 1 0 10 10)" fill="#575656"/>
<defs>
<radialGradient id="paint0_radial_63_29" cx="0" cy="0" r="1" gradientUnits="userSpaceOnUse" gradientTransform="translate(9 9) scale(9)">
<stop offset="0.791667" stop-color="#7C31F3"/>
<stop offset="1" stop-color="#652EEC"/>
</radialGradient>
</defs>
</svg>
